<svg width="244" height="122" viewBox="0 0 244 122" fill="none" xmlns="http://www.w3.org/2000/svg">
<path d="M0.00118807 101.757C-0.00766421 99.1532 0.566939 96.5801 1.68276 94.2272C2.79858 91.8742 4.42728 89.8013 6.44917 88.1606L111.011 3.9655C114.129 1.40161 118.04 -5.50587e-06 122.077 -5.32943e-06C126.113 -5.15299e-06 130.025 1.40161 133.143 3.9655L237.704 91.1241C241.263 94.0829 243.501 98.3347 243.926 102.944C244.351 107.553 242.928 112.143 239.97 115.703C237.012 119.263 232.761 121.501 228.153 121.926C223.545 122.351 218.957 120.928 215.398 117.969L121.99 40.0491L28.5813 115.354C26.0233 117.486 22.9084 118.84 19.6052 119.256C16.3019 119.672 12.9486 119.133 9.94194 117.703C6.93532 116.273 4.40124 114.011 2.63955 111.185C0.87786 108.359 -0.0377055 105.087 0.00118807 101.757Z" fill="black"/>
</svg>
