<svg width="244" height="122" viewBox="0 0 244 122" fill="none" xmlns="http://www.w3.org/2000/svg">
<path d="M243.999 20.2426C244.008 22.8468 243.433 25.4199 242.317 27.7728C241.201 30.1257 239.573 32.1987 237.551 33.8393L132.989 118.034C129.871 120.598 125.96 122 121.923 122C117.887 122 113.975 120.598 110.857 118.034L6.29551 30.8759C2.73665 27.9171 0.498601 23.6653 0.0737375 19.0559C-0.351126 14.4465 1.07199 9.85709 4.03001 6.29724C6.98803 2.73739 11.2387 0.498745 15.8468 0.0737646C20.4549 -0.351216 25.0431 1.07228 28.602 4.03112L122.01 81.9509L215.419 6.64587C217.977 4.51427 221.092 3.16022 224.395 2.74396C227.698 2.3277 231.051 2.86664 234.058 4.29701C237.065 5.72738 239.599 7.98932 241.36 10.8152C243.122 13.641 244.038 16.9126 243.999 20.2426Z" fill="black"/>
</svg>
